<?xml version="1.0" standalone="no"?>
<!DOCTYPE svg PUBLIC "-//W3C//DTD SVG 20010904//EN"
 "http://www.w3.org/TR/2001/REC-SVG-20010904/DTD/svg10.dtd">
<svg version="1.0" xmlns="http://www.w3.org/2000/svg"
 width="700.000000pt" height="700.000000pt" viewBox="0 0 700.000000 700.000000"
 preserveAspectRatio="xMidYMid meet">
<metadata>
Created by potrace 1.14, written by Peter Selinger 2001-2017
</metadata>
<g transform="translate(0.000000,700.000000) scale(0.100000,-0.100000)"
fill="#000000" stroke="none">
<path d="M3237 6990 c-435 -32 -861 -158 -1337 -395 -590 -294 -1094 -753
-1417 -1290 -243 -404 -399 -871 -460 -1375 -21 -179 -24 -639 -5 -805 52
-448 151 -803 327 -1172 301 -630 795 -1144 1415 -1471 259 -137 443 -186 503
-134 23 20 22 39 -8 99 -38 75 -127 166 -319 327 -269 224 -358 333 -411 497
-33 107 -44 199 -55 484 -10 269 -24 375 -70 520 -37 113 -83 191 -166 277
-118 122 -169 265 -169 478 0 206 39 313 159 434 120 120 186 310 222 628 48
441 244 817 605 1163 185 177 365 301 604 416 510 245 1031 273 1544 83 533
-198 1002 -614 1236 -1098 98 -203 141 -359 165 -593 27 -277 102 -479 223
-604 110 -114 157 -240 157 -421 0 -221 -61 -379 -201 -520 -137 -139 -193
-349 -209 -783 -12 -347 -28 -434 -103 -579 -52 -100 -161 -217 -357 -380
-175 -146 -282 -252 -321 -320 -33 -58 -36 -87 -12 -112 55 -55 343 60 648
260 307 202 616 508 863 855 325 458 562 1010 651 1521 32 184 43 312 43 510
0 262 -27 484 -91 745 -348 1420 -1642 2568 -3086 2739 -169 20 -419 27 -568
16z"/>
<path d="M3387 5445 c-333 -67 -695 -210 -924 -368 -149 -102 -177 -163 -105
-232 69 -68 243 -155 447 -224 350 -118 649 -161 895 -128 414 55 938 254
1013 385 16 28 17 37 7 62 -61 146 -684 437 -1084 505 -105 18 -158 18 -249 0z"/>
<path d="M1993 4391 c-48 -21 -95 -225 -97 -421 -1 -145 10 -185 60 -229 102
-90 365 -105 1753 -98 634 3 1004 9 1076 16 215 23 307 58 340 128 24 49 30
187 16 324 -32 320 -148 357 -536 174 -147 -69 -207 -92 -330 -125 -441 -118
-1039 -118 -1490 -1 -108 28 -185 57 -373 140 -169 75 -361 117 -419 92z"/>
<path d="M2160 3199 c-361 -9 -531 -27 -585 -63 -29 -19 -65 -85 -65 -119 0
-79 128 -137 375 -171 243 -34 379 -39 1258 -43 l887 -5 0 -311 c0 -333 10
-443 51 -552 24 -64 63 -115 88 -115 21 0 52 33 74 75 41 81 66 274 67 500 0
197 29 294 101 342 60 40 157 61 368 83 287 29 437 59 554 109 48 21 97 61 97
81 0 61 -671 130 -1655 170 -266 11 -1153 31 -1270 28 -38 -1 -194 -5 -345 -9z"/>
<path d="M1910 2146 c0 -156 -4 -237 -11 -241 -22 -14 11 -319 47 -436 92
-293 339 -420 924 -471 193 -17 1114 -17 1300 0 317 29 492 67 636 138 212
104 306 268 335 582 29 313 -19 574 -116 638 -73 48 -183 19 -235 -63 -42 -66
-50 -99 -61 -246 -10 -153 -29 -229 -77 -321 -95 -181 -270 -291 -483 -303
-231 -13 -445 93 -570 285 -60 91 -85 156 -115 302 -40 193 -65 247 -137 295
-93 64 -228 75 -904 75 l-533 0 0 -234z"/>
<path d="M3088 549 c-194 -15 -309 -56 -324 -115 -10 -39 2 -137 20 -173 44
-85 183 -170 341 -210 140 -35 246 -44 455 -38 160 4 214 10 301 30 260 62
396 159 407 292 11 135 -103 191 -437 215 -159 11 -608 11 -763 -1z"/>
</g>
</svg>
